<svg id="Group_386" data-name="Group 386" xmlns="http://www.w3.org/2000/svg" xmlns:xlink="http://www.w3.org/1999/xlink" width="58.653" height="68.275" viewBox="0 0 58.653 68.275">
  <defs>
    <clipPath id="clip-path">
      <rect id="Rectangle_244" data-name="Rectangle 244" width="58.653" height="68.275" fill="#4673ad"/>
    </clipPath>
  </defs>
  <g id="Group_385" data-name="Group 385" transform="translate(0 0)" clip-path="url(#clip-path)">
    <path id="Path_929" data-name="Path 929" d="M55.3,13.888H48.678l1.752-3.517,7.29-5.905A2.513,2.513,0,1,0,54.557.56L46.843,6.808a2.508,2.508,0,0,0-.668.833l-3.113,6.247H26.478A13.4,13.4,0,1,0,17.528,29.67L30.586,47.49V61.572h-6.7a3.351,3.351,0,0,0,0,6.7H43.991a3.351,3.351,0,0,0,0-6.7h-6.7V47.49L58,19.22a3.351,3.351,0,0,0-2.7-5.332M13.412,25.275a8.371,8.371,0,1,1,7.806-11.387H12.574a3.351,3.351,0,0,0-2.7,5.332l4.4,6.01a8.357,8.357,0,0,1-.863.045" transform="translate(0 0)" fill="#4673ad"/>
  </g>
</svg>
