<?xml version="1.0" encoding="UTF-8"?>
<svg id="Layer_1" data-name="Layer 1" xmlns="http://www.w3.org/2000/svg" version="1.1" viewBox="0 0 453.6 231.5">
  <defs>
    <style>
      .cls-1 {
        fill: #005f94;
        animation: stroke 2s linear forwards;
         stroke-dasharray: 590;
		stroke-dashoffset: 0;
      }
      .cls-3 {
        fill: #8ecaef;
        animation: stroke-2 2s linear forwards;
        stroke-dasharray: 590;
		    stroke-dashoffset: 0;
      }
	
	@keyframes stroke {
		0% {
			fill: white;
			stroke-width: 2;
			stroke-dashoffset: 25%;
			stroke-dasharray: 50%;
		}
		70% {
      fill: white;
			stroke: #005f94;
		}
		80% {
			stroke:#005f94;
			stroke-width: 3;
		}
		100% {
			fill: #005f94;
			stroke: #005f94;
			stroke-width: 0;
			stroke-dashoffset: -25%;
			stroke-dasharray: 50% 0;
		}
  }

    @keyframes stroke-2 {
		0% {
			fill: white;
			stroke-width: 2;
			stroke-dashoffset: 25%;
			stroke-dasharray: 50%;
		}
		70% {
      fill: white;
			stroke: #8ecaef;
		}
		80% {
			stroke: #8ecaef;
			stroke-width: 3;
		}
		100% {
			fill: #8ecaef;
			stroke: #005f94;
			stroke-width: 0;
			stroke-dashoffset: -25%;
			stroke-dasharray: 50% 0;
		}
    
	}

      
    </style>
  </defs>
  <path class="cls-1" d="M424.7,143.6l-37-69.6h-16.2l-34.1,65.3c3.3-12.3,16.7-36.5,16.7-36.5h-15.3c-1.7,3.1-3.5,6.7-5.5,10.6.1-.8.3-1.5.3-2.2,0-5.5-3.2-9.7-10.9-9.7-12.2,0-25.4,15.1-31.2,30.5-.5,1-1,1.9-1.5,2.8v-42.6l18.9-2.6v-16.1c-1.6,0-3.6.2-6,.2-2.3,0-4.7,0-7,.1-2.3,0-4.3,0-6,0s-3.7,0-6,0c-2.3,0-4.6,0-7-.1-2.3,0-4.4-.1-6-.2l-14.8,35.6c-.8-5.1-5-7.8-10.6-7.8s-7.2,1.3-10.3,3.3l-12.9-31.2c-1.5,0-3.1.2-5,.2-1.9,0-3.8,0-5.9.1-2,0-4,0-5.9,0h-3.2c-.4-1.6-.7-3.2-.7-4.9-1.6,2.5-3.3,3.5-5.7,4.9h-.4c-1.9,0-3.8,0-5.9,0-2,0-4,0-5.9-.1-1.9,0-3.6-.1-5.1-.2v16.1l14.7,2c.3,2,.4,4,.4,5.6,1-1.7,2.3-3.2,3.8-4.7v10.2h-11.7c-5.9,11.2-15.3,29.1-17.7,42.9l-20-2.1v-29.5c5.2-7.7,10.2-15.6,15-23.5l9.3-1v-14.3c7-11.4,14.2-22.7,22.1-33.5,2.1-2.9,4.4-5.8,7.6-7.4,4-2,8.8-1.5,13.2-2.5,4.4-1,9.1-4.6,8.2-9.1-.8-3.7-5.1-5.7-8.9-5.4-3.8.3-7.2,2.2-10.9,3.4-13.6,4.6-28.3-.7-42.1-4.8-15.4-4.6-31.6-7.9-47.6-6s-31.9,9.9-40.4,23.5c-7.5,12.1-7.9,28.8,0,40.2-2.9,0-5.7,0-8.4,0h-19.9c-3.8,0-7.7,0-11.7,0-4,0-7.9,0-11.7-.1-3.8,0-7.1-.1-10-.2l-.7,43.9h10.8l1.6-25,47.8-2.7-62.4,55.3v17.2c3-.1,6.5-.2,10.5-.2,3.9,0,8-.1,12.3-.1,4.2,0,8.3,0,12.2,0h20.9c3.9,0,8,0,12.3,0,4.2,0,8.3.1,12.2.1.6,0,1.3,0,1.9,0-3.1,3.7-6.5,7.1-10.2,9.7-2.7,1.9-5.3,4.9-4.5,8,.7,2.6,3.5,4.1,6,5.2,21.2,9.5,41.9,20.3,63.9,27.8,21.4,7.3,44.6,11.4,67.1,7.8,9.7-1.5,19.2-5,26.6-11.4,5.9-5.1,10.3-12.1,10.9-19.9.4-5.7-1.5-11.7-5.3-15.9-1.7-2-3.8-3.6-6.2-4.6-7.7-3.4-18,0-21.3,7.7,4.5-.7,9.5,0,13.2,2.6,3.8,2.6,6.1,7.5,5.1,12-1.3,5.7-7.2,9.1-12.8,11.1-19,6.9-40,6.5-59.8,2.2-11.2-2.4-22.2-6.1-32.9-10.2-5.5-2.1-10.9-4.4-16.3-6.7-4.4-1.9-10-3.4-13.7-6.5-4.4-3.7.6-10.1,3.2-13.4,1.4-1.8,2.8-3.6,4.3-5.4,1.7,0,3.5-.1,5.5-.1,2.8,0,5.7-.1,8.7-.1s5.9,0,8.7,0h15.1c2.9,0,5.9,0,8.9,0,3.1,0,6.1.1,8.9.1,2.9,0,5.4.1,7.6.2v-.5c1.4.7,3.1,1.2,5.4,1.2s2.6-.3,4-.7h0c1.5,0,3.1,0,4.9-.1,1.7,0,3.4,0,5,0h12.5s0,0,0-.1c1.9,0,4.1,0,6.6,0,3,0,5.9.1,8.8.1s5.5.1,7.7.2v-.3h9.2l.7-1.6.6,1.5h8.1l20.2-48.8c2.6-2.7,5-4.4,6.7-4.4s.9,0,1.2.3v6.2c-3.6,7.2-13.8,20.1-16.7,30.9l-1.2.2v16.1c1.7-.1,3.7-.2,6-.2.3,0,.7,0,1,0,1.1.5,2.5.8,4,.9h.8c1.5,0,3.1-.4,4.7-1,1.2,0,2.4,0,3.6,0h12.1c2.2,0,4.6,0,7,0,.1,0,.2,0,.4,0h0c1.5.6,3.2,1,5.2,1s2.8-.3,4.1-.8c1.2,0,2.3,0,3.3.1v-1.9c2-1.4,3.9-3.3,5.7-5.5v7.4c1.7-.1,3.6-.2,5.8-.2,1.9,0,3.8,0,5.8-.1h0c1.3.6,2.9,1,4.9,1s3.1-.4,4.8-1h9.8c2.2,0,4.5,0,6.8,0,2.3,0,4.6.1,6.8.1,2.2,0,4.1.1,5.8.2v-16.1l-11.8-1.8c2.3-3.7,4.4-7.7,6.1-11.6h38.4l5.7,10.8-17.1,2.6v16.1c1.9-.1,4.1-.2,6.6-.2,2.5,0,5.1-.1,7.8-.1s5.3,0,7.8,0h13.4c2.5,0,5.1,0,7.8,0,2.7,0,5.3.1,7.8.1,2.5,0,4.7.1,6.6.2v-16.1l-19.3-2.6h0ZM101.8,26c11.4-8.5,27-9.2,40.9-6.5,14,2.7,27.2,8.5,41.1,11.6-7,4-12.3,10.3-17.1,16.7-6.2,8.4-11.9,17.2-17.3,26.1-.7,0-1.4,0-2.1,0h-12.4c3.4-6.3,3.7-14.2-.4-19.9-2.7-3.7-7.4-6.2-12-5.6-4.6.6-8.7,4.6-8.8,9.2,3.2-1.6,7.5-.5,9.9,2.2,2.4,2.7,3.1,6.7,2.2,10.2-.3,1.4-.9,2.7-1.7,3.9-.2,0-.4,0-.7,0-3,0-5.9,0-8.7-.1s-5.3-.1-7.5-.2v7.3c-.6,0-1.1-.2-1.7-.4-2.3-.7-4.5-1.8-6.4-3.2v-3.7c-1.2,0-2.5,0-3.9,0-2.8-3.2-4.8-7.2-5.9-11.3-3.5-13.1,1.7-28.2,12.5-36.3h0ZM102.6,148.1c-.7.9-1.4,1.8-2.1,2.7l.6-34.8h-10.8l-1.7,27.3-51.6,2.6,62-55v-3.2c2.5.3,4.9.4,7.4.4.2,0,.5,0,.7,0v1.6l23.7,2.6v13.9c-1.4,2.4-2.8,4.9-4.2,7.3-7.2,12.1-15.3,23.7-24,34.7h0ZM130.9,143.6l-6.1.7c2.1-2.4,4.1-4.7,6.1-7.1v6.4ZM240.9,108.6c1.4,0,2.5.8,2.5,2.6s-.8,3.2-2.5,6.9l-3.4-8.1c1.3-.9,2.4-1.4,3.4-1.4h0ZM220.8,120.5l.4.9c-1.1,1.7-2.2,3.5-3.2,5.2l2.9-6.1ZM209.6,93.7l4,9.7c-1.4,3.4-2.8,6.7-4,9.7v-19.4ZM197.7,109.6v28.9c-1.5,2.3-3.1,4.3-4.7,5.8l-9,1.2c-.1-.5-.2-1.1-.2-1.8,0-6.6,8.7-24.3,13.8-34.1h0ZM227.5,148.2v-2l-14.9-2.1c2.6-4.7,6.6-11.2,10.8-17.4l6.7,16c-.9,1.9-1.7,3.8-2.5,5.5ZM270.4,103.1l3.9-9.4v8.1c-1.4.3-2.6.7-3.9,1.3ZM274.3,141.8v1.8h-.2c0-.6,0-1.2.2-1.8ZM308.5,147.4v-1.2l-4.2-.6c-.7-.9-1-2.3-1-4,0-10.6,11.8-33.4,21.6-33.4s4.9,2.5,4.9,5.8c0,5.5-3.2,13.2-4,15.2-5,11.2-12.1,17.9-17.3,18.2h0ZM321.5,143.6c-.1.6-.2,1.2-.3,1.7h-.7c.3-.5.7-1.1,1-1.7h0ZM351,137.7l2.6-4.9h.3c-.9,1.8-1.9,3.4-2.9,4.9h0ZM360.1,120.1l15.4-29.7,15.4,29.7h-30.8Z"/>
  <path class="cls-3" d="M95.2,73.7c1.2,1.4,2.5,2.6,3.9,3.6v-3.7c-1.2,0-2.5,0-3.9,0h0ZM90.3,116l-1.7,27.3-51.6,2.6,62-55v-3.2c-7.9-1-15.6-4-21.3-9.4-1.4-1.3-2.6-2.7-3.7-4.3-2.9,0-5.7,0-8.4,0h-19.9c-3.8,0-7.7,0-11.7,0-4,0-7.9,0-11.7-.1-3.8,0-7.1-.1-10-.2l-.7,43.9h10.8l1.6-25,47.8-2.7-62.4,55.3v17.2c3-.1,6.5-.2,10.5-.2,3.9,0,8-.1,12.3-.1,4.2,0,8.3,0,12.2,0h20.9c3.9,0,8,0,12.3,0,4.2,0,8.3.1,12.2.1.6,0,1.3,0,1.9,0,3.1-3.6,5.9-7.6,8.7-11.2l.6-34.8h-10.8Z"/>
  <path class="cls-3" d="M123.4,73.9c-3,0-5.9,0-8.7-.1s-5.3-.1-7.5-.2v7.3c6.4,1.1,13.5-1.7,16.9-7-.2,0-.4,0-.7,0ZM167.8,151.7c0-1.9.2-3.9.6-6l-20-2.1v-29.5c-2.7,4-5.6,8-8.5,11.9-2.9,3.8-5.9,7.5-9,11.1v6.4l-6.1.7h0c-5.2,5.9-10.5,11.8-15.5,17.9,1.7,0,3.5-.1,5.5-.1,2.8,0,5.7-.1,8.7-.1s5.9,0,8.7,0h15.1c2.9,0,5.9,0,8.9,0,3.1,0,6.1.1,8.9.1,2.9,0,5.4.1,7.6.2v-.5c-4.3-2.2-4.9-7.2-4.9-10h0ZM163.4,90.6l9.3-1v-14.3c-3.1,5.1-6.2,10.2-9.3,15.2ZM130.9,106.1c1.1-1.8,2.1-3.7,3.2-5.5,5.1-8.9,10.1-17.8,15.3-26.6-.7,0-1.4,0-2.1,0h-12.4c-1,1.8-2.2,3.5-3.6,4.9-6.2,6.3-15.3,8.9-24.2,9.2v1.6l23.7,2.6v13.9h0Z"/>
  <path class="cls-3" d="M237.5,110l-2.2-5.3-12.9-31.2c-1.5,0-3.1.2-5,.2-1.9,0-3.8,0-5.9.1-2,0-4,0-5.9,0h-10c-1.9,0-3.8,0-5.9,0-2,0-4,0-5.9-.1-1.9,0-3.6-.1-5.1-.2v16.1l14.7,2,4.2.6v46.2c1.5-2.3,3-4.9,4.4-7.7,0,0,0,0,0,0,2.2-5.1,4.7-11,7.5-17.6v-19.4l4,9.7.3-.6h15.3l-8.4,17.7.4.9,2.2,5.3,6.7,16c1.6-3.6,3.4-7.6,5.2-11.7,2.4-5.8,4.3-9.9,5.7-12.9l-3.4-8.1h0ZM186.6,147.4c2.1,0,4.3-1.2,6.4-3.2l-9,1.2c.4,1.2,1.1,1.9,2.6,1.9h0ZM242.2,148.9l-4.8,11.4.6,1.5h8.1l20.2-48.8c-8.9,9-21.1,29.5-24.1,36h0ZM184.1,145.5c.4,1.2,1.1,1.9,2.6,1.9,2.1,0,4.3-1.2,6.4-3.2l-9,1.2h0ZM187.7,161.9s.9-1.6,2.6-5.2c-2.7,2.6-5.5,4.5-8.3,5.4,1.5,0,3.1,0,4.9-.1,1.7,0,3.4,0,5,0h-4.2ZM184.1,145.5c.4,1.2,1.1,1.9,2.6,1.9,2.1,0,4.3-1.2,6.4-3.2l-9,1.2h0ZM227.5,146.1l-14.9-2.1c-.6,1.1-1.1,2.1-1.6,2.9l-2.1,4.9c-1.8,4.1-3.5,7.7-4.4,10,1.9,0,4.1,0,6.6,0,3,0,5.9.1,8.8.1s5.5.1,7.7.2v-.3h-6.6s2.8-5.5,6.6-13.8v-2h0ZM256.8,151.2c0-1.7.3-3.4.8-5.2l-1.2.2v16.1c1.7-.1,3.7-.2,6-.2.3,0,.7,0,1,0-5.2-2.2-6.6-7.8-6.6-10.8h0ZM305.2,162.1c1.2,0,2.3,0,3.3.1v-1.9c-1.1.7-2.2,1.3-3.3,1.8ZM304.3,145.6c.9,1.2,2.2,1.8,3.9,1.8s.2,0,.4,0v-1.2l-4.2-.6h0ZM288.5,147c-4.7,6.9-10.3,12.6-15.7,14.8,1.2,0,2.4,0,3.6,0h12.1c2.2,0,4.6,0,7,0,.1,0,.2,0,.4,0-6.2-2.6-7.3-10.1-7.4-14.9h0ZM303,73.8c-2.3,0-4.7,0-7,.1-2.3,0-4.3,0-6,0s-3.7,0-6,0c-2.3,0-4.6,0-7-.1-2.3,0-4.4-.1-6-.2l-14.8,35.6c.1.6.1,1.2.1,1.9,0,2.6-.9,5.8-2.3,9,4.7-7.2,9.9-14,16.3-17l3.9-9.4v8.1c1.1-.2,2.3-.4,3.5-.4,6.3,0,10.7,3.4,10.7,9.7,0,9.1-12.7,21.1-14.2,30.7v1.8h-.2c0,2.4.9,3.8,2.8,3.8,4.5,0,9-5.2,13.1-12.5v-42.6l18.9-2.6v-16.1c-1.6,0-3.6.2-6,.2h0ZM274.3,108.9v6.2c.8-1.6,1.2-2.9,1.2-3.8s-.5-2-1.2-2.3ZM184.1,145.5c.4,1.2,1.1,1.9,2.6,1.9,2.1,0,4.3-1.2,6.4-3.2l-9,1.2h0ZM184.1,145.5c.4,1.2,1.1,1.9,2.6,1.9,2.1,0,4.3-1.2,6.4-3.2l-9,1.2h0ZM184.1,145.5c.4,1.2,1.1,1.9,2.6,1.9,2.1,0,4.3-1.2,6.4-3.2l-9,1.2h0ZM184.1,145.5c.4,1.2,1.1,1.9,2.6,1.9,2.1,0,4.3-1.2,6.4-3.2l-9,1.2h0ZM184.1,145.5c.4,1.2,1.1,1.9,2.6,1.9,2.1,0,4.3-1.2,6.4-3.2l-9,1.2h0ZM184.1,145.5c.4,1.2,1.1,1.9,2.6,1.9,2.1,0,4.3-1.2,6.4-3.2l-9,1.2h0ZM184.1,145.5c.4,1.2,1.1,1.9,2.6,1.9,2.1,0,4.3-1.2,6.4-3.2l-9,1.2h0ZM184.1,145.5c.4,1.2,1.1,1.9,2.6,1.9,2.1,0,4.3-1.2,6.4-3.2l-9,1.2h0ZM184.1,145.5c.4,1.2,1.1,1.9,2.6,1.9,2.1,0,4.3-1.2,6.4-3.2l-9,1.2h0ZM184.1,145.5c.4,1.2,1.1,1.9,2.6,1.9,2.1,0,4.3-1.2,6.4-3.2l-9,1.2h0Z"/>
  <path class="cls-2" d="M202.1,130.8c-1.6,3.7-3.1,6.9-4.4,9.9v-2.2c1.5-2.3,3-4.9,4.4-7.7h0Z"/>
  <path class="cls-3" d="M229.2,102.8l-8.4,17.7-7.1-17.1.3-.6s15.3,0,15.3,0Z"/>
  <path class="cls-3" d="M424.7,143.6l-37-69.6h-16.2l-34.1,65.3c-.5,1.8-.8,3.3-.8,4.4,0,2.3.8,3.7,2.8,3.7,3.9,0,7.8-3.9,11.5-9.6h0c0,0,2.6-5,2.6-5h43.9l5.7,10.8-17.1,2.6v16.1c1.9-.1,4.1-.2,6.6-.2,2.5,0,5.1-.1,7.8-.1s5.3,0,7.8,0h13.4c2.5,0,5.1,0,7.8,0,2.7,0,5.3.1,7.8.1,2.5,0,4.7.1,6.6.2v-16.1l-19.3-2.6h0ZM360.1,120.1l15.4-29.7,15.4,29.7h-30.8ZM335.6,161.8h9.8c2.2,0,4.5,0,6.8,0,2.3,0,4.6.1,6.8.1,2.2,0,4.1.1,5.8.2v-16.1l-11.8-1.8c-5.1,8.1-11.4,14.9-17.4,17.5h0ZM320.6,151.7c0-2,.2-4.1.6-6.4h-.7c-1.9,3.4-3.9,6.7-6.3,9.6v7.4c1.7-.1,3.6-.2,5.8-.2,1.9,0,3.8,0,5.8-.1-4.6-2.2-5.3-7.4-5.3-10.2h0Z"/>
  <path class="cls-1" d="M290.7,143.7c-.7,1.1-1.4,2.2-2.2,3.3v-.2c0-3.2.5-6.6,1.5-10.1v6.9h.7c0,.1,0,0,0,0Z"/>
  <path class="cls-1" d="M193,144.2l3.3-.5,1.4-.2v-5.1c-1.5,2.3-3.1,4.3-4.7,5.8h0ZM201.3,102.8h-15.3c-5.9,11.2-15.3,29-17.7,42.9l4.4.5v15.6c1.4.7,3.1,1.2,5.4,1.2s2.6-.3,4-.7c-1,0-1.9,0-2.8.1v-16.1l4.9-.7c-.1-.5-.2-1.1-.2-1.8,0-6.6,8.7-24.3,13.8-34.1,2.1-4.1,3.6-6.8,3.6-6.8h0Z"/>
  <path class="cls-1" d="M245.6,101.4c-3.8,0-7.2,1.3-10.3,3.3-5.4,3.7-10,10-14.2,16.6-1.1,1.7-2.2,3.5-3.2,5.2l2.9-6.1-7.1-17.1c-1.4,3.4-2.8,6.7-4,9.7v30.4l3,.4c2.6-4.7,6.6-11.2,10.8-17.4,4.9-7.2,10.2-13.8,14.2-16.6,1.3-.9,2.4-1.4,3.4-1.4,1.4,0,2.5.8,2.5,2.6s-.8,3.2-2.5,6.9l5.8,14,9.5-22.9c-.8-5.1-5-7.8-10.6-7.8h0ZM230,142.7c-.9,1.9-1.7,3.8-2.5,5.5v13.8h9.2l.7-1.6-7.4-17.7h0ZM270.4,103.1l-4.1,9.9c2.6-2.7,5-4.4,6.7-4.4s.9,0,1.2.3v-7.1c-1.4.3-2.6.7-3.9,1.3h0ZM292.4,130.4c-.3.6-.6,1.1-.8,1.7-.5,1-1,1.9-1.5,2.8v8.7h.7c2.6-4.2,4.9-8.8,6.7-13.2h-5ZM257.6,146l16.5-2.4c0-.6,0-1.2.2-1.8v-26.8c-3.6,7.2-13.8,20.1-16.7,30.9ZM269.5,161.9c-2.1,0-4.1,0-6.1.1,1.1.5,2.5.8,4,.9h.8c1.5,0,3.1-.4,4.7-1-1.1,0-2.3,0-3.4,0h0ZM203.4,161.8c-2.2,0-4.7,0-7.7,0-1.3,0-2.5,0-3.8,0h12.5s0,0,0-.1h-1ZM196.3,143.8l1.4-.2v-2.9c-.5,1.1-.9,2.1-1.4,3.1h0Z"/>
  <path class="cls-1" d="M172.7,146.1v15.6c-4.3-2.2-4.9-7.2-4.9-10s.2-3.9.6-6l4.4.5Z"/>
  <path class="cls-1" d="M134.9,74c-1,1.8-2.2,3.5-3.6,4.9-6.2,6.3-15.3,8.9-24.2,9.2v-7.1c6.4,1.1,13.5-1.7,16.9-7,2.8,0,5.5,0,8.1,0h2.8Z"/>
  <path class="cls-1" d="M227.5,148.2v13.8h-6.6s2.8-5.5,6.6-13.8Z"/>
  <path class="cls-1" d="M212.6,144c-.6,1.1-1.1,2.1-1.6,2.9l-2.1,4.9c-1.8,4.1-3.5,7.7-4.4,10h-1c-2.2,0-4.7,0-7.7,0-1.3,0-2.5,0-3.8,0h-4.2s.9-1.6,2.6-5.2c0,0,0,0,0,0,6.8-6.3,13.2-16.6,17-26.3h-5.1c0,.1-.1.2-.2.3,2.2-5.1,4.7-11,7.5-17.6v30.5l3,.4h0Z"/>
  <path class="cls-1" d="M207.3,130.4c-3.8,9.7-10.2,20-17,26.3,1.4-2.9,3.4-7.2,6-12.9l1.4-.2v-2.9c1.3-3,2.8-6.2,4.4-9.9,0,0,0,0,0,0,0-.1.1-.2.2-.3h5.1Z"/>
  <path class="cls-1" d="M320.5,145.4c-1.9,3.3-3.9,6.6-6.3,9.5v-8.7l6.3-.8Z"/>
  <path class="cls-1" d="M302.5,162c-2.1,0-4.3,0-6.6-.1,1.5.6,3.2,1,5.2,1s2.8-.3,4.1-.8c-.9,0-1.7,0-2.7,0ZM333.7,161.8c-2.2,0-4.5,0-6.9,0-.3,0-.7,0-1,0,1.3.6,2.9,1,4.9,1s3.1-.4,4.8-1h-1.9ZM338.8,102.8c-1.7,3.1-3.5,6.7-5.5,10.6.1-.8.3-1.5.3-2.2,0-5.5-3.2-9.7-10.9-9.7-12.2,0-25.4,15.1-31.2,30.5-.6,1.5-1.1,3.1-1.5,4.6v6.9h.7c0,.1,13.5,2,13.5,2-.7-.9-1-2.3-1-4,0-10.6,11.8-33.4,21.6-33.4s4.9,2.5,4.9,5.8c0,5.5-3.2,13.2-4,15.2-5,11.2-12.1,17.9-17.3,18.2v12.9c2-1.4,3.9-3.3,5.7-5.5v-8.7l6.3-.8c.3-.6.7-1.2,1-1.8-.1.6-.2,1.2-.3,1.7l14-1.7,2.2-4.3c3.3-12.3,16.7-36.5,16.7-36.5h-15.3,0ZM355,130.4c-.4.8-.8,1.6-1.2,2.4-.9,1.8-1.9,3.4-2.9,4.9h0c0,0-3.1,5.9-3.1,5.9l5.1.8c2.3-3.7,4.4-7.7,6.1-11.6.4-.8.7-1.6,1-2.4h-5.1Z"/>
  <path class="cls-1" d="M105.5,80.5c.6.2,1.1.3,1.7.4v7.1c-.2,0-.5,0-.7,0-2.5,0-4.9,0-7.4-.4v-10.3c1.9,1.4,4.1,2.6,6.4,3.2h0Z"/>
  <path class="cls-1" d="M134.9,74h-2.8c-2.6,0-5.3,0-8.1,0,.8-1.2,1.3-2.5,1.7-3.9.8-3.5.2-7.5-2.2-10.2-2.4-2.7-6.6-3.8-9.9-2.2,0-4.6,4.2-8.6,8.8-9.2,4.6-.6,9.2,1.9,12,5.6,4.2,5.7,3.8,13.7.4,19.9h0Z"/>
  <path class="cls-3" d="M172.7,73.6v1.8c-3.1,5.1-6.2,10.2-9.3,15.2l-15,1.6v21.9c-2.7,4-5.6,8-8.5,11.9-2.9,3.8-5.9,7.5-9,11.1v-31.1c1.1-1.8,2.1-3.7,3.2-5.5,5.1-8.9,10.1-17.8,15.3-26.6,2.2,0,4.5,0,6.8,0,3.1,0,6.1,0,8.9-.1,2.9,0,5.4-.1,7.6-.2h0Z"/>
  <path class="cls-1" d="M148.3,92.2l15-1.6c-4.9,7.9-9.8,15.8-15,23.5v-21.9Z"/>
  <path class="cls-1" d="M77.4,73.9c-1.1,0-2.2,0-3.3,0-8-11.4-7.6-28.2,0-40.2,8.5-13.7,24.4-21.6,40.4-23.5,16-2,32.2,1.3,47.6,6,13.8,4.1,28.5,9.4,42.1,4.8,3.6-1.2,7.1-3.1,10.9-3.4s8.2,1.6,8.9,5.4c.9,4.4-3.8,8.1-8.2,9-4.4,1-9.2.5-13.2,2.5-3.2,1.6-5.5,4.5-7.6,7.4-8,10.8-15.1,22.1-22.1,33.5v-1.8c-2.2,0-4.7.2-7.6.2-2.9,0-5.9,0-8.9.1-2.3,0-4.6,0-6.8,0,5.4-8.9,11-17.7,17.3-26.1,4.8-6.5,10.1-12.8,17.1-16.7-13.9-3.1-27.1-8.8-41.1-11.6-13.9-2.7-29.5-2.1-40.9,6.5-10.9,8.2-16.1,23.2-12.5,36.3,1.1,4.1,3.1,8.1,5.9,11.3-1.9,0-3.9,0-6.1.1-3.7,0-7.7,0-11.7.1h0Z"/>
  <path class="cls-1" d="M251.7,189.4c-.6,7.7-5.1,14.8-10.9,19.9-7.4,6.4-17,9.9-26.6,11.4-22.6,3.6-45.7-.5-67.1-7.8-22-7.5-42.7-18.3-63.9-27.8-2.5-1.1-5.3-2.6-6-5.2-.8-3.2,1.8-6.1,4.5-8,3.7-2.6,7.1-6,10.2-9.7,3.2,0,6,.1,8.6.2l.2-11.4c.7-.9,1.4-1.8,2.1-2.7,8.7-11,16.8-22.6,24-34.7,1.4-2.4,2.8-4.8,4.2-7.3v31.1c-2,2.4-4.1,4.7-6.1,7.1h0l-17.6,1.9v16.1c.7,0,1.4,0,2.1,0-1.5,1.8-2.9,3.6-4.3,5.4-2.5,3.3-7.6,9.7-3.2,13.4,3.7,3.1,9.3,4.7,13.7,6.5,5.4,2.3,10.8,4.6,16.3,6.7,10.7,4.1,21.7,7.8,32.9,10.2,19.8,4.3,40.8,4.7,59.8-2.2,5.5-2,11.4-5.4,12.8-11.1,1-4.5-1.3-9.3-5.1-12s-8.7-3.3-13.2-2.6c3.3-7.7,13.6-11.1,21.3-7.7,2.4,1.1,4.5,2.7,6.2,4.6,3.8,4.3,5.7,10.2,5.3,15.9h0Z"/>
  <path class="cls-1" d="M100.5,150.8l-.2,11.4c-2.5,0-5.4-.1-8.6-.2,3.1-3.6,5.9-7.6,8.7-11.2Z"/>
  <path class="cls-1" d="M99,77.3v10.3c-7.9-1-15.6-4-21.3-9.4-1.4-1.3-2.6-2.7-3.7-4.3,1.1,0,2.2,0,3.3,0,4,0,7.9,0,11.7-.1,2.2,0,4.2,0,6.1-.1,1.2,1.4,2.5,2.6,3.9,3.6Z"/>
  <path class="cls-1" d="M124.8,144.2c-5.2,5.9-10.5,11.8-15.5,17.9-.7,0-1.4,0-2.1,0v-16.1l17.6-1.9Z"/>
  <path class="cls-1" d="M308.5,147.4v12.9c-1.1.7-2.2,1.3-3.3,1.8-.9,0-1.7,0-2.7,0-2.1,0-4.3,0-6.6-.1h0c-6.2-2.6-7.3-10.1-7.4-14.9h0c.8-1.2,1.5-2.2,2.2-3.4l13.5,1.9c.9,1.2,2.2,1.8,3.9,1.8s.2,0,.4,0h0Z"/>
  <path class="cls-1" d="M290,134.9v1.8c-1,3.5-1.5,6.9-1.5,10.1v.3c-4.7,6.9-10.3,12.6-15.7,14.8-1.1,0-2.3,0-3.4,0-2.1,0-4.1,0-6.1.1-5.2-2.2-6.6-7.8-6.6-10.8s.3-3.4.8-5.2l16.5-2.4h0c0,2.4.9,3.8,2.8,3.8,4.5,0,9-5.2,13.1-12.5h0Z"/>
  <path class="cls-1" d="M288.5,111.1c0,9.1-12.7,21.1-14.2,30.7v-26.8c.8-1.6,1.2-2.9,1.2-3.8s-.5-2-1.2-2.3v-7.1c1.1-.2,2.3-.4,3.5-.4,6.3,0,10.7,3.4,10.7,9.7h0Z"/>
  <path class="cls-1" d="M270.4,103.1l-4.1,9.9c-8.9,9-21.1,29.5-24.1,36l-4.8,11.4-7.4-17.7c1.6-3.6,3.4-7.6,5.2-11.7,2.4-5.8,4.3-9.9,5.7-12.9l5.8,14,9.5-22.9c.1.6.1,1.2.1,1.9,0,2.6-.9,5.8-2.3,9,4.7-7.2,9.9-14,16.3-17h0Z"/>
  <path class="cls-1" d="M196.3,143.8c-2.6,5.7-4.6,10-6,12.9,0,0,0,0,0,0-2.7,2.6-5.5,4.5-8.3,5.4h0c-1,0-1.9,0-2.8.1v-16.1l4.9-.7c.4,1.2,1.1,1.9,2.6,1.9,2.1,0,4.3-1.2,6.4-3.2l3.3-.5h0Z"/>
  <path class="cls-1" d="M353,144.4c-5.1,8.1-11.4,14.9-17.4,17.5h-1.9c-2.2,0-4.5,0-6.9,0-.3,0-.7,0-1,0h0c-4.6-2.2-5.3-7.4-5.3-10.2s.2-4.1.6-6.4l14-1.7,2.2-4.3c-.5,1.8-.8,3.3-.8,4.4,0,2.3.8,3.7,2.8,3.7,3.9,0,7.8-3.9,11.5-9.6l-3.1,5.8,5.1.8h0Z"/>
  <path class="cls-1" d="M204.6,79.1c-1.9-3.1-2.8-6.5-2.8-10-1.9,3-4,3.8-7.3,5.8s-6.9,3.1-10.4,3.3c1.3.7,2.4,1.5,3.5,2.5,1.5,1.3,2.9,2.9,4,4.7,1.9,3.1,2.3,8.4,2.3,11.9,1.9-3,4.5-5.7,7.8-7.7,1.8-1.1,3.7-1.9,5.6-2.4,1.6-.5,3.2-.7,4.8-.8-3-1.7-5.6-4.1-7.5-7.2h0Z"/>
</svg>