<svg id="Group_296" data-name="Group 296" xmlns="http://www.w3.org/2000/svg" xmlns:xlink="http://www.w3.org/1999/xlink" width="133.147" height="98.326" viewBox="0 0 133.147 98.326">
  <defs>
    <clipPath id="clip-path">
      <rect id="Rectangle_233" data-name="Rectangle 233" width="133.147" height="98.326" fill="#332727"/>
    </clipPath>
  </defs>
  <g id="Group_274" data-name="Group 274" clip-path="url(#clip-path)">
    <path id="Path_919" data-name="Path 919" d="M107.883,100.41c-2.838,7.166-8.656,15.04-13.551,15.04-4.256,0-4.753-3.476-4.753-5.179,0-6.6,5.32-16.673,8.443-22.632h7.094s-8.088,14.615-8.088,18.943c0,1.064.355,1.7,1.277,1.7,2.483,0,5.037-3.405,7.237-7.875Z" transform="translate(-45.471 -44.486)" fill="#332727"/>
    <path id="Path_920" data-name="Path 920" d="M127.535,86.982l-5.25,11c3.477-5.6,7.166-11.635,12.841-11.635,2.909,0,4.967,1.56,4.967,4.47A11.387,11.387,0,0,1,139.029,95c2.979-4.54,6.314-8.656,11-8.656,2.909,0,4.967,1.56,4.967,4.47,0,4.469-6.67,10.5-6.67,15.112,0,1.064.425,1.7,1.277,1.7,2.483,0,4.967-3.405,7.166-7.875h2.341c-2.838,7.166-8.655,15.041-13.551,15.041H145.2a5.14,5.14,0,0,1-4.9-5.392c0-6.314,8.656-15.679,8.656-18.517a1.065,1.065,0,0,0-1.135-1.206c-3.477,0-12.487,14.757-14.261,18.659l-2.554,6.03H123.7s3.264-6.527,6.6-14.331c2.483-5.889,3.76-8.088,3.76-9.153a1.065,1.065,0,0,0-1.135-1.206c-3.263,0-11.351,12.913-13.834,17.737l-.993,2.27c-.851,1.915-1.632,3.619-2.057,4.683h-7.734s3.974-7.591,12.132-27.386Z" transform="translate(-54.977 -43.828)" fill="#332727"/>
    <path id="Path_921" data-name="Path 921" d="M236.249,99.826c-2.837,7.166-8.655,15.04-13.55,15.04-4.257,0-4.754-3.476-4.754-5.179a18.48,18.48,0,0,1,.425-3.76c-2.27,4.186-5.392,8.939-9.436,8.939-5.108,0-5.818-4.753-5.818-7.449,0-8.584,8.3-20.929,15.822-20.929,3.547,0,5.036,1.915,5.036,4.469a5.555,5.555,0,0,1-.141.993c.922-1.773,1.774-3.476,2.554-4.895h7.094S225.4,101.671,225.4,106c0,1.064.355,1.7,1.277,1.7,2.483,0,5.037-3.405,7.237-7.875ZM222.2,92.235c0-1.56-.567-2.7-2.27-2.7-4.541,0-10,10.571-10,15.466,0,1.845.922,2.7,2.27,2.7,2.413,0,5.818-3.122,8.16-8.443.355-.923,1.845-4.47,1.845-7.024" transform="translate(-103.103 -43.902)" fill="#332727"/>
    <path id="Path_922" data-name="Path 922" d="M114.415,60.574a9.256,9.256,0,0,1-1.314-4.629c-.864,1.4-1.847,1.77-3.379,2.69a10.724,10.724,0,0,1-4.833,1.517,9.09,9.09,0,0,1,1.63,1.145,8.962,8.962,0,0,1,1.84,2.185c.864,1.447,1.054,3.906,1.075,5.5a10.749,10.749,0,0,1,3.617-3.555,10.355,10.355,0,0,1,2.606-1.124,10.233,10.233,0,0,1,2.227-.393,9.18,9.18,0,0,1-3.47-3.336" transform="translate(-53.242 -28.398)" fill="#332727"/>
    <path id="Path_923" data-name="Path 923" d="M82.494,75.862a8.3,8.3,0,0,0-2.9-2.143c-3.557-1.556-8.323,0-9.846,3.569,2.755-.446,5.8.209,7.567,2.6a5.124,5.124,0,0,1,1.029,3.233c-.133,3.217-3.193,5-6.031,6.035-8.788,3.2-18.525,3.009-27.666,1.032a102.344,102.344,0,0,1-15.236-4.733c-2.529-.979-5.033-2.02-7.527-3.084-1.662-.709-6.572-3.476-8.3-4.456a.538.538,0,0,1-.119-.844c.868-.891,2.669-2.773,3.538-3.918,5.058-6.663,11.106-12.519,16.142-19.237,9.331-12.445,16.211-26.44,25.459-38.944a10.593,10.593,0,0,1,3.541-3.431c2.615-1.3,5.9-.379,8.445-2.12a3.427,3.427,0,0,0,1.486-2.193c.42-2.408-2.061-3.707-4.144-3.534-1.756.146-3.356,1.019-5.027,1.579C56.6,7.38,49.8,4.947,43.428,3.03,36.284.881,28.787-.642,21.382.27s-14.753,4.569-18.7,10.9S-.981,26.617,4.409,31.775c3.468,3.319,8.476,4.643,13.277,4.56,4.2-.072,8.588-1.251,11.528-4.254s3.933-8.111,1.445-11.5a6.184,6.184,0,0,0-5.553-2.6,4.658,4.658,0,0,0-4.081,4.255,4,4,0,0,1,4.569,1.031,5.28,5.28,0,0,1,1.045,4.718c-.933,3.825-5.609,5.933-9.4,4.856s-6.5-4.62-7.521-8.423A16.29,16.29,0,0,1,15.528,7.6C20.8,3.648,28.008,3.342,34.472,4.611S47.054,8.53,53.481,9.97c-3.236,1.843-5.7,4.769-7.93,7.753C39.817,25.406,35.208,33.814,30.469,42.13c-1.131,1.984-2.269,3.963-3.432,5.926a147.047,147.047,0,0,1-11.16,16.118c-3.043,3.856-6.145,8.674-10.246,11.3a3.39,3.39,0,0,0-1.57,2.318c-.284,1.906,1.367,2.771,2.807,3.417,9.819,4.405,19.4,9.406,29.585,12.891,9.909,3.392,20.63,5.276,31.082,3.622a24.7,24.7,0,0,0,12.338-5.274,13.942,13.942,0,0,0,5.064-9.2,10.178,10.178,0,0,0-2.443-7.383" transform="translate(0 0)" fill="#332727"/>
  </g>
</svg>
