<svg xmlns="http://www.w3.org/2000/svg" xmlns:xlink="http://www.w3.org/1999/xlink" width="85.016" height="28.577" viewBox="0 0 85.016 28.577">
  <defs>
    <clipPath id="clip-path">
      <rect id="Rectangle_239" data-name="Rectangle 239" width="28.577" height="83.84" fill="#223c80"/>
    </clipPath>
  </defs>
  <g id="Group_493" data-name="Group 493" transform="translate(-237.984 -35)">
    <g id="Group_314" data-name="Group 314" transform="translate(321.824 35) rotate(90)" clip-path="url(#clip-path)">
      <path id="Path_927" data-name="Path 927" d="M27.017,1.693a.005.005,0,0,1,0,.005c.032.458,2.809,40.1.865,46.261C26.67,51.82,20.175,54.71,19.977,54.8a.006.006,0,0,0,0,.007c.025.189.818,6.093.618,7.706-.288,2.32-1.736,4.457-1.855,8.892a11.026,11.026,0,0,0,.391,3.229.007.007,0,0,0,.007,0h.438a.705.705,0,0,1,.713.623.682.682,0,0,1-.677.745h-.291a1.86,1.86,0,0,1,.291.995v4.968a1.867,1.867,0,0,1-1.862,1.872H10.833a1.867,1.867,0,0,1-1.862-1.872V77a1.859,1.859,0,0,1,.284-.984A.007.007,0,0,0,9.249,76H9.006a.705.705,0,0,1-.713-.623.683.683,0,0,1,.677-.745h.474a.007.007,0,0,0,.007,0A11.02,11.02,0,0,0,9.842,71.4c-.119-4.435-1.568-6.573-1.855-8.892-.2-1.614.592-7.517.618-7.706a.006.006,0,0,0,0-.007C8.4,54.71,1.907,51.82.69,47.959-1.254,41.8,1.525,2.129,1.555,1.7c0,0,0,0,0,0,9.956-2.4,15.366-2.111,25.457,0" transform="translate(0 0)" fill="#223c80"/>
    </g>
    <text id="MENU" transform="translate(271 40)" fill="#fafafa" font-size="15" font-family="SegoeUIBlack, Segoe UI"><tspan x="0" y="16">MENU</tspan></text>
  </g>
</svg>
