<svg id="Group_388" data-name="Group 388" xmlns="http://www.w3.org/2000/svg" xmlns:xlink="http://www.w3.org/1999/xlink" width="64.144" height="72.766" viewBox="0 0 64.144 72.766">
  <defs>
    <clipPath id="clip-path">
      <rect id="Rectangle_245" data-name="Rectangle 245" width="64.144" height="72.766" fill="#4673ad"/>
    </clipPath>
  </defs>
  <g id="Group_387" data-name="Group 387" clip-path="url(#clip-path)">
    <path id="Path_930" data-name="Path 930" d="M62.853,52.258l-7.708-4.45,5.281-1.9a1.438,1.438,0,0,0,.9-1.554.959.959,0,0,0-1.314-.759l-7.493,2.7L48.9,44.2a3.913,3.913,0,0,0-1.536-5.151l-.726-.419a3.9,3.9,0,0,0-2.838-.42l-.144-.539.893-3.332a3.9,3.9,0,0,0,1.91-.523l.727-.419a3.917,3.917,0,0,0,1.93-3.869l3.874-2.236,7.494,2.7a.96.96,0,0,0,1.314-.758,1.44,1.44,0,0,0-.9-1.555l-5.28-1.9,7.707-4.449a1.974,1.974,0,0,0,.491-2.726,1.973,1.973,0,0,0-2.607-.938L53.5,22.113l.994-5.525a1.436,1.436,0,0,0-.9-1.554.959.959,0,0,0-1.314.758L50.874,23.63l-3.614,2.086a3.915,3.915,0,0,0-5.229-1.245l-.726.419a3.906,3.906,0,0,0-1.785,2.249L38.984,27l-2.44-2.441a3.887,3.887,0,0,0,.5-1.914V21.8a3.918,3.918,0,0,0-2.385-3.605V13.721l6.083-5.14a.961.961,0,0,0,0-1.517,1.44,1.44,0,0,0-1.8,0L34.66,10.688v-8.9a2.145,2.145,0,0,0-4.23,0v8.9L26.141,7.064a1.438,1.438,0,0,0-1.794,0,.96.96,0,0,0,0,1.517l6.083,5.14V17.9a3.912,3.912,0,0,0-3.693,3.9v.84a3.9,3.9,0,0,0,1.055,2.668L27.4,25.7l-3.333.893A3.9,3.9,0,0,0,22.657,25.2l-.727-.419a3.915,3.915,0,0,0-4.315.262L13.741,22.81,12.33,14.973a.96.96,0,0,0-1.314-.759,1.438,1.438,0,0,0-.9,1.555l.994,5.525L3.4,16.843a1.972,1.972,0,0,0-2.6.938,1.973,1.973,0,0,0,.49,2.726L9,24.957l-5.281,1.9a1.439,1.439,0,0,0-.9,1.554.96.96,0,0,0,1.314.759l7.493-2.7,3.615,2.087a3.913,3.913,0,0,0,1.535,5.151l.727.419a3.9,3.9,0,0,0,2.839.42l.144.538-.893,3.334a3.9,3.9,0,0,0-1.91.522l-.726.42a3.917,3.917,0,0,0-1.93,3.869l-3.876,2.236-7.492-2.7a.96.96,0,0,0-1.314.758,1.438,1.438,0,0,0,.9,1.555l5.282,1.9L.817,51.439a1.971,1.971,0,0,0-.49,2.725,1.972,1.972,0,0,0,2.6.938l7.708-4.45-.994,5.524a1.438,1.438,0,0,0,.9,1.555.959.959,0,0,0,1.314-.758l1.41-7.838,3.615-2.086a3.912,3.912,0,0,0,5.229,1.245l.727-.419a3.9,3.9,0,0,0,1.783-2.248l.539.145L27.6,48.211a3.894,3.894,0,0,0-.5,1.915v.84a3.919,3.919,0,0,0,2.386,3.606v4.472L23.4,64.185a.96.96,0,0,0,0,1.517,1.441,1.441,0,0,0,1.8,0l4.286-3.623v8.9a2.145,2.145,0,0,0,4.23,0v-8.9L38,65.7a1.439,1.439,0,0,0,1.8,0,.959.959,0,0,0,0-1.516l-6.083-5.141V54.87a3.913,3.913,0,0,0,3.694-3.9v-.839a3.9,3.9,0,0,0-1.056-2.669l.394-.393,3.333-.894a3.887,3.887,0,0,0,1.407,1.393l.728.419a3.916,3.916,0,0,0,4.315-.263L50.4,49.955l1.41,7.838a.96.96,0,0,0,1.314.758,1.44,1.44,0,0,0,.9-1.555l-1-5.525,7.708,4.45a2.146,2.146,0,0,0,2.116-3.664M32.7,45.233a1.4,1.4,0,0,0-.694.432,1.4,1.4,0,0,0-1.032-1.251l-4.355-1.167-1.9-1.9A1.4,1.4,0,0,0,24,40.966a1.405,1.405,0,0,0,.567-1.52L23.4,35.091l.694-2.591a1.406,1.406,0,0,0-.027-.816,1.4,1.4,0,0,0,1.6-.269l3.187-3.188,2.59-.694a1.392,1.392,0,0,0,.693-.432,1.406,1.406,0,0,0,1.034,1.251l4.355,1.167,1.9,1.9a1.4,1.4,0,0,0,.721.384,1.4,1.4,0,0,0-.568,1.52l1.167,4.354-.693,2.591a1.391,1.391,0,0,0,.027.816,1.4,1.4,0,0,0-1.6.27l-3.189,3.188Z" transform="translate(0 0)" fill="#4673ad"/>
    <path id="Path_931" data-name="Path 931" d="M62.853,52.258l-7.708-4.45,5.281-1.9a1.438,1.438,0,0,0,.9-1.554.959.959,0,0,0-1.314-.759l-7.493,2.7L48.9,44.2a3.913,3.913,0,0,0-1.536-5.151l-.726-.419a3.9,3.9,0,0,0-2.838-.42l-.144-.539.893-3.332a3.9,3.9,0,0,0,1.91-.523l.727-.419a3.917,3.917,0,0,0,1.93-3.869l3.874-2.236,7.494,2.7a.96.96,0,0,0,1.314-.758,1.44,1.44,0,0,0-.9-1.555l-5.28-1.9,7.707-4.449a1.974,1.974,0,0,0,.491-2.726,1.973,1.973,0,0,0-2.607-.938L53.5,22.113l.994-5.525a1.436,1.436,0,0,0-.9-1.554.959.959,0,0,0-1.314.758L50.874,23.63l-3.614,2.086a3.915,3.915,0,0,0-5.229-1.245l-.726.419a3.906,3.906,0,0,0-1.785,2.249L38.984,27l-2.44-2.441a3.887,3.887,0,0,0,.5-1.914V21.8a3.918,3.918,0,0,0-2.385-3.605V13.721l6.083-5.14a.961.961,0,0,0,0-1.517,1.44,1.44,0,0,0-1.8,0L34.66,10.688v-8.9a2.145,2.145,0,0,0-4.23,0v8.9L26.141,7.064a1.438,1.438,0,0,0-1.794,0,.96.96,0,0,0,0,1.517l6.083,5.14V17.9a3.912,3.912,0,0,0-3.693,3.9v.84a3.9,3.9,0,0,0,1.055,2.668L27.4,25.7l-3.333.893A3.9,3.9,0,0,0,22.657,25.2l-.727-.419a3.915,3.915,0,0,0-4.315.262L13.741,22.81,12.33,14.973a.96.96,0,0,0-1.314-.759,1.438,1.438,0,0,0-.9,1.555l.994,5.525L3.4,16.843a1.972,1.972,0,0,0-2.6.938,1.973,1.973,0,0,0,.49,2.726L9,24.957l-5.281,1.9a1.439,1.439,0,0,0-.9,1.554.96.96,0,0,0,1.314.759l7.493-2.7,3.615,2.087a3.913,3.913,0,0,0,1.535,5.151l.727.419a3.9,3.9,0,0,0,2.839.42l.144.538-.893,3.334a3.9,3.9,0,0,0-1.91.522l-.726.42a3.917,3.917,0,0,0-1.93,3.869l-3.876,2.236-7.492-2.7a.96.96,0,0,0-1.314.758,1.438,1.438,0,0,0,.9,1.555l5.282,1.9L.817,51.439a1.971,1.971,0,0,0-.49,2.725,1.972,1.972,0,0,0,2.6.938l7.708-4.45-.994,5.524a1.438,1.438,0,0,0,.9,1.555.959.959,0,0,0,1.314-.758l1.41-7.838,3.615-2.086a3.912,3.912,0,0,0,5.229,1.245l.727-.419a3.9,3.9,0,0,0,1.783-2.248l.539.145L27.6,48.211a3.894,3.894,0,0,0-.5,1.915v.84a3.919,3.919,0,0,0,2.386,3.606v4.472L23.4,64.185a.96.96,0,0,0,0,1.517,1.441,1.441,0,0,0,1.8,0l4.286-3.623v8.9a2.145,2.145,0,0,0,4.23,0v-8.9L38,65.7a1.439,1.439,0,0,0,1.8,0,.959.959,0,0,0,0-1.516l-6.083-5.141V54.87a3.913,3.913,0,0,0,3.694-3.9v-.839a3.9,3.9,0,0,0-1.056-2.669l.394-.393,3.333-.894a3.887,3.887,0,0,0,1.407,1.393l.728.419a3.916,3.916,0,0,0,4.315-.263L50.4,49.955l1.41,7.838a.96.96,0,0,0,1.314.758,1.44,1.44,0,0,0,.9-1.555l-1-5.525,7.708,4.45a2.146,2.146,0,0,0,2.116-3.664M32.7,45.233a1.4,1.4,0,0,0-.694.432,1.4,1.4,0,0,0-1.032-1.251l-4.355-1.167-1.9-1.9A1.4,1.4,0,0,0,24,40.966a1.405,1.405,0,0,0,.567-1.52L23.4,35.091l.694-2.591a1.406,1.406,0,0,0-.027-.816,1.4,1.4,0,0,0,1.6-.269l3.187-3.188,2.59-.694a1.392,1.392,0,0,0,.693-.432,1.406,1.406,0,0,0,1.034,1.251l4.355,1.167,1.9,1.9a1.4,1.4,0,0,0,.721.384,1.4,1.4,0,0,0-.568,1.52l1.167,4.354-.693,2.591a1.391,1.391,0,0,0,.027.816,1.4,1.4,0,0,0-1.6.27l-3.189,3.188Z" transform="translate(0 0)" fill="#4673ad"/>
    <path id="Path_932" data-name="Path 932" d="M62.853,52.258l-7.708-4.45,5.281-1.9a1.438,1.438,0,0,0,.9-1.554.959.959,0,0,0-1.314-.759l-7.493,2.7L48.9,44.2a3.913,3.913,0,0,0-1.536-5.151l-.726-.419a3.9,3.9,0,0,0-2.838-.42l-.144-.539.893-3.332a3.9,3.9,0,0,0,1.91-.523l.727-.419a3.917,3.917,0,0,0,1.93-3.869l3.874-2.236,7.494,2.7a.96.96,0,0,0,1.314-.758,1.44,1.44,0,0,0-.9-1.555l-5.28-1.9,7.707-4.449a1.974,1.974,0,0,0,.491-2.726,1.973,1.973,0,0,0-2.607-.938L53.5,22.113l.994-5.525a1.436,1.436,0,0,0-.9-1.554.959.959,0,0,0-1.314.758L50.874,23.63l-3.614,2.086a3.915,3.915,0,0,0-5.229-1.245l-.726.419a3.906,3.906,0,0,0-1.785,2.249L38.984,27l-2.44-2.441a3.887,3.887,0,0,0,.5-1.914V21.8a3.918,3.918,0,0,0-2.385-3.605V13.721l6.083-5.14a.961.961,0,0,0,0-1.517,1.44,1.44,0,0,0-1.8,0L34.66,10.688v-8.9a2.145,2.145,0,0,0-4.23,0v8.9L26.141,7.064a1.438,1.438,0,0,0-1.794,0,.96.96,0,0,0,0,1.517l6.083,5.14V17.9a3.912,3.912,0,0,0-3.693,3.9v.84a3.9,3.9,0,0,0,1.055,2.668L27.4,25.7l-3.333.893A3.9,3.9,0,0,0,22.657,25.2l-.727-.419a3.915,3.915,0,0,0-4.315.262L13.741,22.81,12.33,14.973a.96.96,0,0,0-1.314-.759,1.438,1.438,0,0,0-.9,1.555l.994,5.525L3.4,16.843a1.972,1.972,0,0,0-2.6.938,1.973,1.973,0,0,0,.49,2.726L9,24.957l-5.281,1.9a1.439,1.439,0,0,0-.9,1.554.96.96,0,0,0,1.314.759l7.493-2.7,3.615,2.087a3.913,3.913,0,0,0,1.535,5.151l.727.419a3.9,3.9,0,0,0,2.839.42l.144.538-.893,3.334a3.9,3.9,0,0,0-1.91.522l-.726.42a3.917,3.917,0,0,0-1.93,3.869l-3.876,2.236-7.492-2.7a.96.96,0,0,0-1.314.758,1.438,1.438,0,0,0,.9,1.555l5.282,1.9L.817,51.439a1.971,1.971,0,0,0-.49,2.725,1.972,1.972,0,0,0,2.6.938l7.708-4.45-.994,5.524a1.438,1.438,0,0,0,.9,1.555.959.959,0,0,0,1.314-.758l1.41-7.838,3.615-2.086a3.912,3.912,0,0,0,5.229,1.245l.727-.419a3.9,3.9,0,0,0,1.783-2.248l.539.145L27.6,48.211a3.894,3.894,0,0,0-.5,1.915v.84a3.919,3.919,0,0,0,2.386,3.606v4.472L23.4,64.185a.96.96,0,0,0,0,1.517,1.441,1.441,0,0,0,1.8,0l4.286-3.623v8.9a2.145,2.145,0,0,0,4.23,0v-8.9L38,65.7a1.439,1.439,0,0,0,1.8,0,.959.959,0,0,0,0-1.516l-6.083-5.141V54.87a3.913,3.913,0,0,0,3.694-3.9v-.839a3.9,3.9,0,0,0-1.056-2.669l.394-.393,3.333-.894a3.887,3.887,0,0,0,1.407,1.393l.728.419a3.916,3.916,0,0,0,4.315-.263L50.4,49.955l1.41,7.838a.96.96,0,0,0,1.314.758,1.44,1.44,0,0,0,.9-1.555l-1-5.525,7.708,4.45a2.146,2.146,0,0,0,2.116-3.664M32.7,45.233a1.4,1.4,0,0,0-.694.432,1.4,1.4,0,0,0-1.032-1.251l-4.355-1.167-1.9-1.9A1.4,1.4,0,0,0,24,40.966a1.405,1.405,0,0,0,.567-1.52L23.4,35.091l.694-2.591a1.406,1.406,0,0,0-.027-.816,1.4,1.4,0,0,0,1.6-.269l3.187-3.188,2.59-.694a1.392,1.392,0,0,0,.693-.432,1.406,1.406,0,0,0,1.034,1.251l4.355,1.167,1.9,1.9a1.4,1.4,0,0,0,.721.384,1.4,1.4,0,0,0-.568,1.52l1.167,4.354-.693,2.591a1.391,1.391,0,0,0,.027.816,1.4,1.4,0,0,0-1.6.27l-3.189,3.188Z" transform="translate(0 0)" fill="#4673ad"/>
  </g>
</svg>
